<svg width="49" height="35" viewBox="0 0 49 35" fill="none" xmlns="http://www.w3.org/2000/svg">
<g clip-path="url(#clip0_220_311)">
<path fill-rule="evenodd" clip-rule="evenodd" d="M1.88461 0C0.84378 0 0 0.870566 0 1.94445C0 3.01832 0.84378 3.88889 1.88461 3.88889H47.1153C48.1561 3.88889 49 3.01832 49 1.94445C49 0.870566 48.1561 0 47.1153 0H1.88461ZM0 17.5C0 16.4261 0.84378 15.5555 1.88461 15.5555H47.1153C48.1561 15.5555 49 16.4261 49 17.5C49 18.5739 48.1561 19.4445 47.1153 19.4445H1.88461C0.84378 19.4445 0 18.5739 0 17.5ZM0 33.0555C0 31.9819 0.84378 31.1111 1.88461 31.1111H47.1153C48.1561 31.1111 49 31.9819 49 33.0555C49 34.1293 48.1561 35 47.1153 35H1.88461C0.84378 35 0 34.1293 0 33.0555Z" fill="black"/>
</g>
<defs>
<clipPath id="clip0_220_311">
<rect width="49" height="35" fill="white"/>
</clipPath>
</defs>
</svg>
